<svg width="569" height="445" viewBox="0 0 569 445" fill="none" xmlns="http://www.w3.org/2000/svg">
<path d="M284.5 101L246.429 103.576C221.811 74.3788 152.825 0.8125 84.125 0.8125C84.125 0.8125 27.7338 85.5425 82.98 198.611C67.2363 222.37 57.5038 234.679 55.5 263.017L0.253784 271.319L6.26503 299.371L56.645 291.929L60.6525 312.252L15.7113 339.16L29.165 364.636L70.6713 339.16C103.59 409.005 186.889 444.5 284.5 444.5C382.111 444.5 465.41 409.005 498.329 339.16L539.835 364.636L553.289 339.16L508.348 312.252L512.355 291.929L562.735 299.371L568.746 271.319L513.5 263.017C511.496 234.679 501.764 222.37 486.02 198.611C541.266 85.5425 484.875 0.8125 484.875 0.8125C416.175 0.8125 347.189 74.3788 322.571 103.576L284.5 101ZM198.625 186.875C206.217 186.875 213.498 189.891 218.866 195.259C224.234 200.627 227.25 207.908 227.25 215.5C227.25 223.092 224.234 230.373 218.866 235.741C213.498 241.109 206.217 244.125 198.625 244.125C191.033 244.125 183.752 241.109 178.384 235.741C173.016 230.373 170 223.092 170 215.5C170 207.908 173.016 200.627 178.384 195.259C183.752 189.891 191.033 186.875 198.625 186.875ZM370.375 186.875C377.967 186.875 385.248 189.891 390.616 195.259C395.984 200.627 399 207.908 399 215.5C399 223.092 395.984 230.373 390.616 235.741C385.248 241.109 377.967 244.125 370.375 244.125C362.783 244.125 355.502 241.109 350.134 235.741C344.766 230.373 341.75 223.092 341.75 215.5C341.75 207.908 344.766 200.627 350.134 195.259C355.502 189.891 362.783 186.875 370.375 186.875ZM255.875 272.75H313.125L293.088 312.539C298.813 330.859 314.843 344.312 334.594 344.312C345.982 344.312 356.903 339.789 364.955 331.736C373.008 323.684 377.531 312.763 377.531 301.375H391.844C391.844 316.559 385.812 331.12 375.076 341.857C364.339 352.593 349.777 358.625 334.594 358.625C313.125 358.625 294.519 346.889 284.5 330C274.481 346.889 255.875 358.625 234.406 358.625C219.223 358.625 204.661 352.593 193.924 341.857C183.188 331.12 177.156 316.559 177.156 301.375H191.469C191.469 312.763 195.993 323.684 204.045 331.736C212.097 339.789 223.019 344.312 234.406 344.312C254.158 344.312 270.188 330.859 275.913 312.539L255.875 272.75Z" fill="#7751BD"/>
</svg>
