<svg width="38" height="38" viewBox="0 0 38 38" fill="none" xmlns="http://www.w3.org/2000/svg">
<path d="M19 37C22.5601 37 26.0402 35.9443 29.0003 33.9665C31.9603 31.9886 34.2675 29.1774 35.6298 25.8883C36.9922 22.5992 37.3487 18.98 36.6541 15.4884C35.9596 11.9967 34.2453 8.78943 31.7279 6.27209C29.2106 3.75474 26.0033 2.04041 22.5116 1.34587C19.02 0.651339 15.4008 1.0078 12.1117 2.37018C8.82263 3.73255 6.01141 6.03966 4.03355 8.99974C2.05568 11.9598 1 15.4399 1 19C1 21.976 1.72 24.78 3 27.254L1 37L10.746 35C13.218 36.278 16.026 37 19 37Z" fill="#7751BD" stroke="#7751BD" stroke-width="2" stroke-linecap="round" stroke-linejoin="round"/>
</svg>
