<svg width="44" height="36" viewBox="0 0 44 36" fill="none" xmlns="http://www.w3.org/2000/svg">
<path id="Vector" d="M21.1563 5.93688L22 7.26263L22.8437 5.93688C24.7592 2.9268 28.1401 1 32 1C38.0477 1 43 5.95228 43 12C43 14.6991 41.7576 17.4919 39.7561 20.2211C37.7623 22.94 35.082 25.5045 32.3668 27.726C29.6564 29.9436 26.9411 31.7953 24.9006 33.0938C23.8814 33.7425 23.0329 34.2515 22.4407 34.5976C22.2733 34.6954 22.1263 34.7803 22.0019 34.8515C21.8772 34.7796 21.7299 34.6939 21.562 34.5951C20.9697 34.2464 20.1211 33.7338 19.1016 33.0812C17.0608 31.7748 14.3451 29.9135 11.6343 27.6894C8.91854 25.4613 6.23771 22.8932 4.24343 20.1783C2.24096 17.4522 1 14.6725 1 12C1 5.95228 5.95228 1 12 1C15.8599 1 19.2408 2.9268 21.1563 5.93688Z" stroke="#7751BD" stroke-width="2"/>
</svg>
