<svg width="54" height="54" viewBox="0 0 54 54" fill="none" xmlns="http://www.w3.org/2000/svg">
<g id="majesticons:search-line">
<path id="Vector" d="M45.0008 41.0008L35.8883 31.8883M35.8883 31.8883C37.3509 30.4257 38.5111 28.6893 39.3026 26.7784C40.0942 24.8674 40.5016 22.8192 40.5016 20.7508C40.5016 18.6824 40.0942 16.6342 39.3026 14.7232C38.5111 12.8123 37.3509 11.0759 35.8883 9.6133C34.4257 8.15071 32.6893 6.99051 30.7784 6.19896C28.8674 5.40741 26.8192 5 24.7508 5C22.6824 5 20.6342 5.40741 18.7232 6.19896C16.8123 6.99051 15.0759 8.15071 13.6133 9.6133C10.6595 12.5672 9 16.5734 9 20.7508C9 24.9282 10.6595 28.9345 13.6133 31.8883C16.5672 34.8422 20.5734 36.5016 24.7508 36.5016C28.9282 36.5016 32.9345 34.8422 35.8883 31.8883Z" stroke="#7751BD" stroke-opacity="0.64" stroke-width="2" stroke-linecap="round" stroke-linejoin="round"/>
</g>
</svg>
