<svg width="50" height="50" viewBox="0 0 50 50" fill="none" xmlns="http://www.w3.org/2000/svg">
<g id="mdi:emoji-cat">
<path id="Vector" d="M25 16.6667L22.2292 16.8542C20.4375 14.7292 15.4167 9.375 10.4167 9.375C10.4167 9.375 6.3125 15.5417 10.3333 23.7708C9.1875 25.5 8.47917 26.3958 8.33333 28.4583L4.3125 29.0625L4.75 31.1042L8.41667 30.5625L8.70833 32.0417L5.4375 34L6.41667 35.8542L9.4375 34C11.8333 39.0833 17.8958 41.6667 25 41.6667C32.1042 41.6667 38.1667 39.0833 40.5625 34L43.5833 35.8542L44.5625 34L41.2917 32.0417L41.5833 30.5625L45.25 31.1042L45.6875 29.0625L41.6667 28.4583C41.5208 26.3958 40.8125 25.5 39.6667 23.7708C43.6875 15.5417 39.5833 9.375 39.5833 9.375C34.5833 9.375 29.5625 14.7292 27.7708 16.8542L25 16.6667ZM18.75 22.9167C19.3025 22.9167 19.8324 23.1362 20.2231 23.5269C20.6138 23.9176 20.8333 24.4475 20.8333 25C20.8333 25.5525 20.6138 26.0824 20.2231 26.4731C19.8324 26.8638 19.3025 27.0833 18.75 27.0833C18.1975 27.0833 17.6676 26.8638 17.2769 26.4731C16.8862 26.0824 16.6667 25.5525 16.6667 25C16.6667 24.4475 16.8862 23.9176 17.2769 23.5269C17.6676 23.1362 18.1975 22.9167 18.75 22.9167ZM31.25 22.9167C31.8025 22.9167 32.3324 23.1362 32.7231 23.5269C33.1138 23.9176 33.3333 24.4475 33.3333 25C33.3333 25.5525 33.1138 26.0824 32.7231 26.4731C32.3324 26.8638 31.8025 27.0833 31.25 27.0833C30.6975 27.0833 30.1676 26.8638 29.7769 26.4731C29.3862 26.0824 29.1667 25.5525 29.1667 25C29.1667 24.4475 29.3862 23.9176 29.7769 23.5269C30.1676 23.1362 30.6975 22.9167 31.25 22.9167ZM22.9167 29.1667H27.0833L25.625 32.0625C26.0417 33.3958 27.2083 34.375 28.6458 34.375C29.4746 34.375 30.2695 34.0458 30.8555 33.4597C31.4416 32.8737 31.7708 32.0788 31.7708 31.25H32.8125C32.8125 32.3551 32.3735 33.4149 31.5921 34.1963C30.8107 34.9777 29.7509 35.4167 28.6458 35.4167C27.0833 35.4167 25.7292 34.5625 25 33.3333C24.2708 34.5625 22.9167 35.4167 21.3542 35.4167C20.2491 35.4167 19.1893 34.9777 18.4079 34.1963C17.6265 33.4149 17.1875 32.3551 17.1875 31.25H18.2292C18.2292 32.0788 18.5584 32.8737 19.1445 33.4597C19.7305 34.0458 20.5254 34.375 21.3542 34.375C22.7917 34.375 23.9583 33.3958 24.375 32.0625L22.9167 29.1667Z" fill="white"/>
</g>
</svg>
