<svg width="54" height="54" viewBox="0 0 54 54" fill="none" xmlns="http://www.w3.org/2000/svg">
<g id="carbon:chevron-up-outline">
<path id="Vector" d="M21.2389 15.8861L32.3494 27L21.2372 38.1139L23.625 40.5L37.125 27L23.625 13.5L21.2389 15.8861Z" fill="white"/>
<path id="Vector_2" d="M27 50.625C13.9725 50.625 3.375 40.0275 3.375 27C3.375 13.9725 13.9725 3.375 27 3.375C40.0275 3.375 50.625 13.9725 50.625 27C50.625 40.0275 40.0275 50.625 27 50.625ZM27 6.75C15.8338 6.75 6.75 15.8338 6.75 27C6.75 38.1662 15.8338 47.25 27 47.25C38.1662 47.25 47.25 38.1662 47.25 27C47.25 15.8338 38.1662 6.75 27 6.75Z" fill="white"/>
</g>
</svg>
