<svg width="54" height="54" viewBox="0 0 54 54" fill="none" xmlns="http://www.w3.org/2000/svg">
<g id="carbon:chevron-up-outline">
<path id="Vector" d="M32.7611 38.1139L21.6506 27L32.7628 15.8861L30.375 13.5L16.875 27L30.375 40.5L32.7611 38.1139Z" fill="white"/>
<path id="Vector_2" d="M27 3.375C40.0275 3.375 50.625 13.9725 50.625 27C50.625 40.0275 40.0275 50.625 27 50.625C13.9725 50.625 3.375 40.0275 3.375 27C3.375 13.9725 13.9725 3.375 27 3.375ZM27 47.25C38.1662 47.25 47.25 38.1662 47.25 27C47.25 15.8338 38.1662 6.75 27 6.75C15.8338 6.75 6.75 15.8338 6.75 27C6.75 38.1662 15.8338 47.25 27 47.25Z" fill="white"/>
</g>
</svg>
