<svg width="36" height="36" viewBox="0 0 36 36" fill="none" xmlns="http://www.w3.org/2000/svg">
<g id="solar:link-bold">
<path id="Vector" d="M23.5934 5.82608C25.7444 3.66608 28.8914 3.62108 30.6329 5.37008C32.3789 7.12208 32.3324 10.2901 30.1784 12.4501L26.5439 16.0996C26.3393 16.312 26.2263 16.5964 26.2292 16.8914C26.2322 17.1863 26.3509 17.4684 26.5598 17.6767C26.7687 17.885 27.051 18.0029 27.346 18.005C27.641 18.0071 27.925 17.8933 28.1369 17.6881L31.7729 14.0386C34.6394 11.1601 34.9994 6.56558 32.2274 3.78158C29.4524 0.996084 24.8669 1.35908 21.9974 4.23758L14.7284 11.5381C11.8619 14.4166 11.5019 19.0111 14.2739 21.7936C14.3775 21.9013 14.5014 21.9872 14.6385 22.0465C14.7756 22.1057 14.9231 22.1371 15.0725 22.1387C15.2219 22.1404 15.37 22.1123 15.5084 22.056C15.6468 21.9998 15.7726 21.9166 15.8785 21.8112C15.9843 21.7058 16.0681 21.5804 16.125 21.4423C16.1819 21.3042 16.2107 21.1561 16.2098 21.0068C16.2089 20.8574 16.1782 20.7097 16.1196 20.5723C16.061 20.435 15.9756 20.3106 15.8684 20.2066C14.1224 18.4546 14.1704 15.2866 16.3229 13.1266L23.5934 5.82608Z" fill="#7751BD"/>
<path id="Vector_2" d="M21.7275 14.2049C21.5166 13.9935 21.2304 13.8744 20.9318 13.874C20.6332 13.8736 20.3466 13.9918 20.1352 14.2027C19.9238 14.4135 19.8047 14.6997 19.8043 14.9983C19.8039 15.2969 19.9221 15.5835 20.133 15.7949C21.879 17.5469 21.8325 20.7134 19.6785 22.8749L12.408 30.1739C10.2555 32.3339 7.10846 32.3789 5.36696 30.6299C3.62096 28.8779 3.66896 25.7099 5.82146 23.5499L9.45746 19.9004C9.56176 19.7957 9.64442 19.6715 9.70072 19.5349C9.75701 19.3982 9.78585 19.2518 9.78557 19.104C9.78529 18.9563 9.7559 18.81 9.69909 18.6735C9.64228 18.5371 9.55915 18.4132 9.45446 18.3089C9.34976 18.2046 9.22554 18.122 9.0889 18.0657C8.95226 18.0094 8.80587 17.9805 8.65808 17.9808C8.5103 17.9811 8.36402 18.0105 8.22759 18.0673C8.09116 18.1241 7.96726 18.2072 7.86296 18.3119L4.22696 21.9614C1.36046 24.8414 1.00046 29.4344 3.77246 32.2184C6.54746 35.0054 11.133 34.6409 14.0025 31.7624L21.273 24.4619C24.1395 21.5849 24.4995 16.9874 21.7275 14.2049Z" fill="#7751BD"/>
</g>
</svg>
